# xmcd
# 
# Track frame offsets:
#     150
#     31165
#     59576
#     94518
#     128905
#     166128
#     207715
# 
# Disc length: 3193
# 
# Revision: 1
# Processed by: cddbd v1.5.2PL0 Copyright (c) Steve Scherf et al.
# Submitted via: BonkEnc v1.0.15
# 
DISCID=5c0c7707
DTITLE=Wish - Manabu Ooishi
DYEAR=2010
DGENRE=Jazz
TTITLE0=I'm yours
TTITLE1=Wish
TTITLE2=My foolish Heart
TTITLE3=NEBULA
TTITLE4=Continuous rain
TTITLE5=Hikari
TTITLE6=What a wonderfull world
EXTD=
EXTT0=
EXTT1=
EXTT2=
EXTT3=
EXTT4=
EXTT5=
EXTT6=
PLAYORDER=
